<svg xmlns="http://www.w3.org/2000/svg" viewBox="0 0 500 500"><g id="freepik--Shadows--inject-153"><g id="freepik--Shadow--inject-214--inject-153"><ellipse id="freepik--path--inject-214--inject-153" cx="250" cy="431.27" rx="193.89" ry="11.32" style="fill:#f5f5f5"></ellipse></g></g><g id="freepik--Verified--inject-153"><rect x="361.94" y="244.07" width="3.94" height="1" style="fill:#407BFF"></rect><rect x="369.96" y="244.07" width="12.85" height="1" style="fill:#407BFF"></rect><path d="M406.33,227l-2.49,28.5a5.18,5.18,0,0,1-5.06,4.65,4.2,4.2,0,0,1-4.25-4.65L397,227a15.08,15.08,0,0,0-15.24-16.7H371.6A18.61,18.61,0,0,0,353.44,227l-1,11.64h-9.3l1-11.64c1.25-14.34,13.94-26,28.27-26h10.2A23.47,23.47,0,0,1,406.33,227Z" style="fill:#407BFF"></path><g style="opacity:0.5;isolation:isolate"><path d="M406.33,227l-2.49,28.5a5.18,5.18,0,0,1-5.06,4.65,4.2,4.2,0,0,1-4.25-4.65L397,227a15.08,15.08,0,0,0-15.24-16.7H371.6A18.61,18.61,0,0,0,353.44,227l-1,11.64h-9.3l1-11.64c1.25-14.34,13.94-26,28.27-26h10.2A23.47,23.47,0,0,1,406.33,227Z" style="fill:#fff"></path></g><path d="M407,254.46,402.15,310a7.07,7.07,0,0,1-6.92,6.35H339.69a5.73,5.73,0,0,1-5.8-6.35l4.86-55.54a7.07,7.07,0,0,1,3.46-5.39,6.8,6.8,0,0,1,3.46-1H401.2a6,6,0,0,1,3.21.91A5.76,5.76,0,0,1,407,254.46Z" style="fill:#407BFF"></path><path d="M349.25,278.72l14.43,22.21,47.59-47.59a.48.48,0,0,0-.63-.71l-45.35,35.55-8.57-13.81Z" style="fill:#fff"></path></g><g id="freepik--Character--inject-153"><path d="M276,191.65l.34.41.46.53c.33.35.65.72,1,1.06.69.72,1.44,1.42,2.2,2.13a58.1,58.1,0,0,0,4.77,3.95c1.69,1.26,3.47,2.41,5.25,3.55,1,.54,1.82,1.11,2.76,1.63l2.17,1.2a1.44,1.44,0,0,0,1,.06c.7-.21,4.72-4.19,6-5.67,2.84-3.25,7.14-7.53,9.46-11.17L314,192.9a58.69,58.69,0,0,1-6.47,12.64,28,28,0,0,1-5.1,5.71,14.34,14.34,0,0,1-3.92,2.35,9.51,9.51,0,0,1-5.68.43,8.9,8.9,0,0,1-1.43-.48l-.9-.39-1.62-.74c-1.09-.48-2.14-1.06-3.2-1.59a66.35,66.35,0,0,1-6.16-3.73,63.54,63.54,0,0,1-5.75-4.46c-.95-.83-1.8-1.67-2.67-2.58-.43-.45-.87-.92-1.29-1.41l-.62-.76c-.23-.28-.4-.49-.71-.92Z" style="fill:#ffb573"></path><path d="M311,189.88l4.64-9.92,4.43,7.94s-2.91,5-6.07,5Z" style="fill:#ffb573"></path><polygon points="320.9 175.84 325.58 181.86 320.11 187.89 315.68 179.96 320.9 175.84" style="fill:#ffb573"></polygon><path d="M319.27,190.63h7.37a.84.84,0,0,0,.83-.76L329,172.2a.83.83,0,0,0-.83-.91h-7.36a.84.84,0,0,0-.83.77l-1.55,17.66A.84.84,0,0,0,319.27,190.63Z" style="fill:#407BFF"></path><polygon points="319.35 188.86 326.73 188.86 328.11 173.07 320.73 173.07 319.35 188.86" style="fill:#fff;opacity:0.30000000000000004"></polygon><path d="M318.87,186.62h0l1.31-.67a8,8,0,0,0,1.83-1.28l.24-.87a1.26,1.26,0,0,0-1.39-.57l-1.09.3-5.41.41-.13,2.28,1.58,2.44.54,0A2.47,2.47,0,0,0,318.87,186.62Z" style="fill:#ffb573"></path><path d="M266.56,182c3.75-.68,30.2,22.25,30.2,22.25l-7.84,11.5s-28.92-20.14-28-25C261.81,185.64,261.1,183,266.56,182Z" style="fill:#263238"></path><path d="M269.9,189.33l-.29,12c3,2.33,13.84,10.64,13.84,10.64Z" style="opacity:0.2;isolation:isolate"></path><polygon points="248.93 420.31 257.8 421.18 260.62 400.61 251.74 399.74 248.93 420.31" style="fill:#ffb573"></polygon><polygon points="161.6 299.61 159.33 308.25 178.52 316.52 182.5 307.75 161.6 299.61" style="fill:#ffb573"></polygon><path d="M264.15,423a3.38,3.38,0,0,0,2.19-.48,1.18,1.18,0,0,0,.4-1,.65.65,0,0,0-.34-.57c-1.07-.64-4.69,1.08-5.1,1.27a.21.21,0,0,0-.12.21.21.21,0,0,0,.17.18A15.5,15.5,0,0,0,264.15,423Zm1.61-1.79a.7.7,0,0,1,.4.09.26.26,0,0,1,.14.23.8.8,0,0,1-.27.67c-.55.47-2,.51-4,.13a11.52,11.52,0,0,1,3.76-1.13Z" style="fill:#407BFF"></path><path d="M261.39,422.57l.08,0c1.08-.45,3.25-2.31,3.11-3.33a.79.79,0,0,0-.78-.62,1.47,1.47,0,0,0-1.19.3c-1.15.89-1.42,3.3-1.44,3.39a.23.23,0,0,0,.05.21A.22.22,0,0,0,261.39,422.57ZM263.6,419l.12,0c.39.06.41.21.41.26.09.61-1.39,2.09-2.5,2.68a4.78,4.78,0,0,1,1.22-2.72,1.06,1.06,0,0,1,.77-.19Z" style="fill:#407BFF"></path><path d="M257.36,417.6l-8,.34a.7.7,0,0,0-.69.63l-1.92,11.17a1.44,1.44,0,0,0,1.37,1.52h.16c3.49-.18,5.17-.44,9.59-.59,2.71-.09,11,.89,14.7.05s3-4.51,1.41-4.48c-5.14.1-11.07-3.25-14-7.17C259.47,418.74,257.92,417.57,257.36,417.6Z" style="fill:#263238"></path><path d="M163.41,309.38l4.08-6.93a.69.69,0,0,0-.17-.92L159,293.86a1.45,1.45,0,0,0-2,.32l-.09.14c-1.74,3-2.43,4.58-4.7,8.37-1.4,2.33-6.74,8.8-8,12.33s2.16,5,3,3.62c2.71-4.38,8.74-7.54,13.64-7.92C161.32,310.54,163.13,309.87,163.41,309.38Z" style="fill:#263238"></path><polygon points="260.62 400.61 259.17 411.22 250.29 410.35 251.73 399.75 260.62 400.61" style="opacity:0.2"></polygon><polygon points="188.4 309.89 184.3 319.14 171.94 313.68 175.09 304.87 188.4 309.89" style="opacity:0.2"></polygon><path d="M272.23,192.55c5.07,8.62-1.13,15.89-6.31,41.65l-33.42.09c.54-13.88.48-25.1-5.44-52.41a4.58,4.58,0,0,1,4.49-5.6c2.76,0,6.23.09,9.76.45a121.54,121.54,0,0,1,16.55,2.51,68.75,68.75,0,0,1,8.7,2.72C268.28,182.54,270.35,187.22,272.23,192.55Z" style="fill:#263238"></path><path d="M267.16,235.94s18.77,54.27,18.32,80.37c-.26,14.95-1.39,42.81-5.9,62.4-3.68,16-18.68,26.2-18.68,26.2l-12-.71s-6.5-24.4-5.37-34.11c2.25-19.33,8.92-33.85,8.11-51.6-1.28-29.06-9.88-83-9.88-83Z" style="fill:#407BFF"></path><polygon points="246.49 407.33 263.44 408.33 264.98 403.24 246.04 401.49 246.49 407.33" style="fill:#263238"></polygon><path d="M248.63,345.58s0-.1.1-.09c10.65,1,18-14.33,16.25-35.32l-5.65-53.5Z" style="opacity:0.2;isolation:isolate"></path><path d="M258.74,235.49s14.92,95.43-16.1,106.17c-16.37,6.2-30.14-.52-46.45-7.74-9.43-4.17-21.21-15.46-21.21-15.46l4.53-12.33a59,59,0,0,1,25-1.26c15.9,2.46,16.57,7,22.22,3.57,11.88-29.36-8.56-52.57,5.33-73Z" style="fill:#407BFF"></path><polygon points="180.4 303.79 174.34 319.78 178.8 323.19 186 304.16 180.4 303.79" style="fill:#263238"></polygon><path d="M177.9,217.56c-1.51,2.23-9.17.72-9.17.72l-1.63-9.49,9.41,3.77Z" style="fill:#ffb573"></path><path d="M169,208.3l1.46,9.86-5.65.84a1.24,1.24,0,0,1-1.33-1L161.31,211a.65.65,0,0,1,.46-.77Z" style="fill:#ffb573"></path><path d="M166.47,212.77l3.22.57,3.05-2.29-1.18-.84a4,4,0,0,1-1.58-2.37,17.34,17.34,0,0,1-.41-3.05v-.34a1.39,1.39,0,0,0-1.18-1.2l-.8.59c-.5,1.09-.14,2.36-.2,3.21l-.13,1.65-1.29.56Z" style="fill:#ffb573"></path><path d="M228.67,180l-18.92,26L175,212.86v5.7s32.66,2.42,40-1.85,19.65-30.17,19.65-30.17Z" style="fill:#ffb573"></path><path d="M228.45,130c-7.94-2.66-17.15,2.27-20.78,9.81s-2.36,16.79,1.73,24.09c1.23,2.21,2.7,4.29,3.71,6.6a10.44,10.44,0,0,1,.69,7.37c-.82,2.39-1.66,3.92-4.62,3.54,0,0,0-1.64,1.13-1.44h0s-2.4,1.33-3.34.46c1.09,1.68,4,1.07,4.93-.71,1.39-2.65-1.17-6.24-4.17-6.21s-5.44,3.07-5.34,6.06a8.22,8.22,0,0,0,5,6.89,3.72,3.72,0,0,1-4-2.15c1.36,3.56,5.8,5.13,9.55,4.43s6.92-3.1,9.86-5.53c4-3.28,8.09-7.43,8-12.56-.09-3.83-2.55-7.12-4.62-10.35s-3.88-7.17-2.56-10.76c1.11-3.05,4.13-4.89,6.79-6.75,1.92-1.33,5.82-4.3,5.36-7.11C235.3,133,230.7,130.75,228.45,130Z" style="fill:#263238"></path><path d="M210.56,219l-5.24-13.87,1.2.1a5.07,5.07,0,0,0,4.85-2.58c4-7.12,14.33-25.19,17.24-26.09,4.15-1.23,8.42,2.09,10,7,1.19,3.61-11,19.09-16.62,27.89C217,219.24,210.56,219,210.56,219Z" style="fill:#263238"></path><path d="M159.45,313.94v.11a1.22,1.22,0,0,0,.9.76.74.74,0,0,0,.71-.15c.84-.77.3-4,.25-4.32a.2.2,0,0,0-.16-.17.24.24,0,0,0-.21.08C160.26,311.21,159.18,312.92,159.45,313.94Zm1.54-3c.18,1.28.26,3-.21,3.42a.33.33,0,0,1-.32,0,.8.8,0,0,1-.6-.5c-.18-.54.2-1.64,1.13-2.94Z" style="fill:#407BFF"></path><path d="M161,310.76c.26,1.08,1.28,2.92,2.18,3.14a.74.74,0,0,0,.82-.42,1.11,1.11,0,0,0,.06-.94c-.41-1.24-2.77-2.26-2.87-2.31a.22.22,0,0,0-.21,0,.22.22,0,0,0-.08.2A2.19,2.19,0,0,0,161,310.76Zm2.72,2a.68.68,0,0,1-.09.52c-.13.24-.26.24-.36.22-.61-.12-1.54-1.63-1.84-2.68.77.39,2,1.12,2.26,1.88a.09.09,0,0,0,0,.06Z" style="fill:#407BFF"></path><path d="M232.38,232.6l-.93,3.25c-.12.25.17.51.59.5l34.5,0c.33,0,.6-.17.62-.37l.32-3.25c0-.22-.26-.42-.62-.41l-33.9,0A.64.64,0,0,0,232.38,232.6Z" style="fill:#407BFF"></path><path d="M232.38,232.6l-.93,3.25c-.12.25.17.51.59.5l34.5,0c.33,0,.6-.17.62-.37l.32-3.25c0-.22-.26-.42-.62-.41l-33.9,0A.64.64,0,0,0,232.38,232.6Z" style="fill:#fff;opacity:0.5;isolation:isolate"></path><path d="M239,236.65h-1c-.19,0-.35-.1-.33-.22l.45-4.23c0-.12.19-.22.39-.22h1c.19,0,.34.1.33.23l-.45,4.22C239.33,236.55,239.15,236.66,239,236.65Z" style="fill:#407BFF"></path><path d="M263.87,236.65h-1c-.18,0-.34-.1-.32-.22l.45-4.22c0-.13.18-.23.37-.23h1c.19,0,.35.1.33.22l-.45,4.22C264.23,236.55,264.07,236.65,263.87,236.65Z" style="fill:#407BFF"></path><path d="M252.46,236.63h-1c-.19,0-.35-.1-.33-.22l.45-4.22c0-.13.19-.23.38-.23h1c.19,0,.34.1.33.22l-.46,4.22C252.83,236.53,252.66,236.63,252.46,236.63Z" style="fill:#407BFF"></path><path d="M242.87,158.53c1.06,5.45,2.1,15.29-1.6,18.25,0,0,1.48,5.59,11.37,7.08,10.92,1.64,5.19-4.58,5.19-4.58-5.95-2.35-5.8-6.65-4.78-10.61Z" style="fill:#ffb573"></path><path d="M241.31,176.73A106.07,106.07,0,0,1,257,178.91l7.48,2.23c1.33,2.68-.85,8.19-7.11,9.24,0,0-15.77,2.17-20.42-14.07Z" style="fill:#ffb573"></path><path d="M247,162.68l6,6a15.21,15.21,0,0,0-.49,2.84c-2.28-.67-5.94-3.18-6.19-5.58A8.25,8.25,0,0,1,247,162.68Z" style="opacity:0.2;isolation:isolate"></path><path d="M236.19,151.65c2.68,8.46,3.62,12.1,9.11,15.43,8.18,5,18-.12,17.9-9.2-.08-8.18-4.43-20.64-13.72-22a12.1,12.1,0,0,0-13.29,15.74Z" style="fill:#ffb573"></path><path d="M256.38,150.33a19,19,0,0,0,3.41,4,3.12,3.12,0,0,1-2.43,1Z" style="fill:#ed893e"></path><path d="M255.43,159.85a5.82,5.82,0,0,0,1-.2.2.2,0,0,0,.15-.24h0a.21.21,0,0,0-.25-.15,5.67,5.67,0,0,1-5-1,.22.22,0,0,0-.31,0,.21.21,0,0,0,0,.3A6,6,0,0,0,255.43,159.85Z" style="fill:#263238"></path><path d="M233.28,134.76a8.2,8.2,0,0,0-3.74,6.55,3.06,3.06,0,0,0,.23,1.47,1.42,1.42,0,0,0,1.14.85c.76,0,1.32-.68,1.74-1.32l1.94-3a14.91,14.91,0,0,0,2-3.19C237.24,134.15,234.47,134,233.28,134.76Z" style="fill:#407BFF"></path><path d="M234.23,136.75c-5.31,6.14-7.69,23.13,7.87,27.87,2.6-2.06-1.6-5.81-3.38-10.55-1.17-3.1,4.76-8.89,7.07-11.27s4.44-5.81,7.7-5.26a4.4,4.4,0,0,0,2.56.07c2.59-1.17,1.33-2.72,0-3.8a13.31,13.31,0,0,0-7-2.58A17.33,17.33,0,0,0,234.23,136.75Z" style="fill:#263238"></path><path d="M251.5,134.69c6.25,5.21-2,5.34-6.37,8.64-4.19,3.17-1.25,8.36-8.34,10.77-5.79,1.69-7.13.67-8.73-.45a9.12,9.12,0,0,0,7.53-8.19C236.08,141.66,244.36,128.65,251.5,134.69Z" style="fill:#263238"></path><path d="M235.25,158.76a6.55,6.55,0,0,0,4.16,2.7c2.24.39,3.1-1.66,2.33-3.66-.73-1.8-2.76-4.17-4.93-3.66a2.91,2.91,0,0,0-2.09,3.54A3,3,0,0,0,235.25,158.76Z" style="fill:#ffb573"></path><path d="M250.43,135.22c1.21,3.08,4.7,2.67,7.28,5.89,1.59,2,4.71-4.17.46-6.6S248.53,130.4,250.43,135.22Z" style="fill:#263238"></path><path d="M246.75,148.22a.42.42,0,0,0,.43-.25c.82-1.82,3.28-2.28,3.3-2.28a.44.44,0,0,0,.34-.5.42.42,0,0,0-.49-.33c-.13,0-2.93.59-3.93,2.79a.43.43,0,0,0,.21.56h.14Z" style="fill:#263238"></path><path d="M259.75,144.54a.4.4,0,0,0,.37-.19.41.41,0,0,0-.11-.58h0a4.2,4.2,0,0,0-3.84-.49.41.41,0,0,0-.22.56.42.42,0,0,0,.55.22h0a3.31,3.31,0,0,1,3,.42A.6.6,0,0,0,259.75,144.54Z" style="fill:#263238"></path><path d="M300.86,199.28,295,202.61l-6.09,13.1s5.88,3.74,10.52.71S300.86,199.28,300.86,199.28Z" style="fill:#407BFF"></path><path d="M300.86,199.28,295,202.61l-6.09,13.1s5.88,3.74,10.52.71S300.86,199.28,300.86,199.28Z" style="fill:#fff;opacity:0.5;isolation:isolate"></path><path d="M198.39,203.33l6.93,2,6.57,13.59s-5.28,4.89-11,.22C196.61,215.6,198.39,203.33,198.39,203.33Z" style="fill:#407BFF"></path><g style="opacity:0.5;isolation:isolate"><path d="M198.39,203.33l6.93,2,6.57,13.59s-5.28,4.89-11,.22C196.61,215.6,198.39,203.33,198.39,203.33Z" style="fill:#fff"></path></g><path d="M259.35,147.93c.48-.09,1,.45,1.11,1.19s-.16,1.42-.64,1.5-1-.45-1.11-1.19S258.87,148,259.35,147.93Z" style="fill:#263238"></path><path d="M260.83,147.2l-1.69.83C260.16,148.75,260.83,147.2,260.83,147.2Z" style="fill:#263238"></path><path d="M251,149.65c.48-.09,1,.45,1.11,1.19s-.16,1.42-.64,1.5-1-.45-1.11-1.19S250.5,149.74,251,149.65Z" style="fill:#263238"></path><path d="M252.46,148.92l-1.69.83C251.79,150.47,252.46,148.92,252.46,148.92Z" style="fill:#263238"></path><path d="M208.66,187.91a7.31,7.31,0,0,1-2.75-.52c-3.1-1.27-4.54-4.49-4-8.85a.5.5,0,0,1,.56-.43.49.49,0,0,1,.43.56c-.52,3.87.7,6.71,3.35,7.79a7.7,7.7,0,0,0,8.65-2.66c2.51-3.34,1.69-8.08-2.22-13-10.24-12.85-9.56-19.68-8.11-25.08,2.1-7.84,8.25-16.82,25.65-15.09a.5.5,0,1,1-.1,1c-16.69-1.66-22.59,6.9-24.59,14.36-1.44,5.4-2,11.71,7.93,24.2,6,7.53,3.57,12.46,2.24,14.22A9,9,0,0,1,208.66,187.91Z" style="fill:#263238"></path></g></svg>