<svg id="Layer_1" xmlns="http://www.w3.org/2000/svg" viewBox="0 0 1399.4 1184.7"><style>.st1{fill:#a1d5ff}.st2{fill:#dcf3ff}.st3{fill:#9fbefc}.st4{fill:#a9ccff}.st5{fill:#cae3fc}.st6{fill:#0051c6}.st9{fill:#005be0}.st11{fill:#ffb9a3}.st15{fill:#fea092}.st16{fill:#2db3ba}.st17{fill:#259faf}.st18{fill:#5eddc5}.st19{fill:#3ec6c2}.st20{fill:#ffd0c0}.st21{fill:#001b69}.st23{fill:#133b9e}.st24{fill:#bbe0ff}</style><g id="Layer_2_1_"><path class="st1" d="M187.5 526.5L29.9 580c-7.2 2.4-14.7-2.9-14.7-10.5v-208c0-13.5 8.6-25.5 21.4-29.8l157.6-53.5c7.2-2.4 14.7 2.9 14.7 10.5v207.9c0 13.5-8.6 25.5-21.4 29.9z"/><path class="st2" d="M1204 510.7c-.8-.7-1.6-1.3-2.4-1.9-38.1-30-63.8-72.9-71.3-120.8-33-212.2-176.7-388-329.9-388C625.7 0 484 203.1 484 453.6v.5c0 26.9-20 49.7-46.8 52.7-40.6 4.5-75.9 19.6-102.5 46.3-95.8 95.8-42.8 304.2 118.5 465.5 104.8 104.8 229.4 163.8 330.2 166.1h7.4c13.7-.1 27-1.2 39.6-3.5 97.5-16 210.3-85.7 300.7-195.7 145-176.2 177.6-388.7 72.9-474.8z"/><path class="st3" d="M920.9 1066.7s49.2-556.9 184.4-534.5c135.2 22.4-3.7-345.3 85.2-341S1365.6 629 1265.3 768c-100.3 139 14.1 103.4-11.3 153-25.4 49.6-237.7 174.7-237.7 174.7"/><path class="st4" d="M1204 510.7c-.8-.7-1.6-1.3-2.4-1.9-13.6-10.7-25.5-23-35.7-36.6-5.4 40.4-21.5 66.6-60.7 60.1-135.2-22.4-184.4 534.5-184.4 534.5l95.5 29.1c40.2-30 79.3-67 114.9-110.3 144.9-176.3 177.5-388.8 72.8-474.9z"/><path class="st5" d="M1210.4 550.2c-.2 9.3-.7 18.6-1.3 27.9-.6 9.3-1.5 18.6-2.5 27.9-2 18.6-4.6 37-7.9 55.4-6.6 36.8-15.8 73.2-29 108.4-3.3 8.8-6.9 17.5-10.7 26.1-3.8 8.6-8 17.1-12.5 25.4s-9.3 16.5-14.5 24.4-10.8 15.6-16.8 23-12.5 14.4-19.3 21.1c-1.7 1.6-3.4 3.3-5.2 4.9l-5.4 4.8c-3.7 3.1-7.4 6.1-11.3 8.9l-2.9 2.2-3 2-3 2-1.5 1-1.5.9-6.2 3.8-6.3 3.5c-8.6 4.5-17.4 8.4-26.6 11.7l-4.7-14.2c8.5-2.7 16.8-6 24.9-10l6-3.1 5.9-3.3 1.5-.8 1.4-.9 2.9-1.8 2.9-1.8 2.8-1.9c3.7-2.5 7.3-5.3 10.9-8l5.2-4.3c1.7-1.4 3.4-3 5.1-4.5 6.7-6.1 13.1-12.6 19-19.5 6-6.9 11.6-14.1 16.9-21.6s10.2-15.2 14.8-23.2c4.7-7.9 9-16.1 13-24.4 4.1-8.3 7.9-16.7 11.4-25.2 14.2-34.2 24.5-70 32.3-106.3 3.9-18.2 7.1-36.5 9.7-54.9 1.3-9.2 2.4-18.5 3.4-27.7.8-9.3 1.6-18.6 2.1-27.9z"/><path class="st5" d="M1255.1 630.2c-2.2 8.6-5.1 17-8.6 25.2s-7.6 16.2-12.6 23.8c-2.5 3.8-5.3 7.4-8.3 10.9s-6.4 6.7-10.1 9.6c-3.7 2.9-7.8 5.5-12.2 7.4-4.5 1.9-9.2 3.2-14.1 3.8-2.7.3-5.2-1.6-5.6-4.4-.3-2.7 1.6-5.2 4.4-5.6h.5c3.9-.1 7.8-.8 11.7-2 3.8-1.2 7.5-3.1 11-5.3s6.8-4.9 9.9-7.8c3.1-2.9 6-6.1 8.7-9.5 5.4-6.8 10.2-14.2 14.4-21.9 4.2-7.8 7.9-15.8 10.9-24.2zM1151.4 680.8c.4 5.3 1.3 10.6 2.5 15.7s2.8 10.2 4.8 14.9c2.1 4.7 4.7 9.2 8 12.9 1.7 1.8 3.5 3.5 5.5 4.7 2 1.3 4.1 2.3 6.3 2.9 1.9.6 2.9 2.5 2.3 4.4-.6 1.9-2.5 2.9-4.4 2.3-.1 0-.2-.1-.4-.1-2.8-1.2-5.4-2.7-7.6-4.6-2.3-1.9-4.2-4.1-5.9-6.4-3.4-4.6-5.6-9.8-7.2-15-1.6-5.2-2.7-10.5-3.3-15.9-.4-5.2-.7-10.5-.6-15.8z"/><path class="st4" d="M857.5 1166.6s85.9-146.9 263.7-207.1c114.9-38.9 152.4-107.2 164.5-150.8 2.1-7.7 13.2-7.1 14.6.7 7 38.5 14.2 97.2 4.6 144.3-4.6 22.6-22.5 40-45.2 44.2l-43.3 8.1 29.6 15.4c9.6 5 11.1 18.2 2.9 25.2-21.7 18.5-61.8 47.9-102.3 52.2l-22.9-32-2.5 46-63.5 12.7v-45.7l-19.1 48.3s-96.8 8.8-151.9 38.7"/><path class="st3" d="M1164.3 941.9c-13 6.3-27.3 12.2-43.1 17.6-177.9 60.2-263.7 207.1-263.7 207.1h29.2c12-6.5 25.9-12 40.3-16.6 70.5-33.3 142.6-89.6 204.2-164.5 11.8-14.3 22.8-28.9 33.1-43.6zM639.1 1149.1s-145.8-87.8-273-100c-7.5-.7-10.8-9.8-5.6-15.3 16.8-17.4 52-45.1 107.4-49.4l20.8 33.2v-33.2s53.2 8.9 64.6 17.8l-13.9 60 30.4-57.4s30.9 12.7 39.6 19.1l-16.7 31.2 16.7-12.1s38 32.4 42.4 49.2"/><path class="st4" d="M609.4 1042.8l-16.7 12.1 16.7-31.2c-8.7-6.4-39.6-19.1-39.6-19.1l-30.4 57.4 13.9-60c-11.4-8.9-64.6-17.8-64.6-17.8v33.2l-20.8-33.2c-14.7 1.1-27.9 3.9-39.7 7.7 8 8.9 16.4 17.7 25 26.4 38.5 38.5 79.7 70.9 121.4 96.5 39 18.7 64.4 34.1 64.4 34.1l12.6-57c-4.2-16.7-42.2-49.1-42.2-49.1z"/><path class="st6" d="M833.3 1120.4L719.7 959.5 671 939.6s-46.4 103.5-33.2 208.9c50.7 22.7 100.5 35.1 145.6 36.2h7.4c13.7-.1 27-1.2 39.6-3.5 18.3-3 37.1-7.9 56.2-14.6l-53.3-46.2z"/><path d="M757.7 1013.2l-37.9-53.7-48.7-19.9s-9 20.2-18 51.8c32.9 11.6 68.4 20 104.6 21.8z" fill="#0e5399"/><path d="M639.1 1149.1c50.2 22.4 99.6 34.6 144.3 35.6h7.4c13.7-.1 27-1.2 39.6-3.5 6-1 12-2.2 18.1-3.5 59.7-63.8 131.6-153.9 172.1-252.5l-298.1 14.4s-66.9 97.3-83.4 209.5z" fill="#006ae8"/><path class="st9" d="M687.3 1001.8c58.9 17.8 124.3 23.8 186.8.8 12.7-4.7 26.3-6.9 39.8-6.1 26.1 1.7 51.8.1 75-5.8 11.9-21.3 22.7-43.1 31.9-65.5l-298.1 14.4c-.2 0-16.7 24.1-35.4 62.2zM466.1 22.8c-12-12-31.5-12-43.6 0L249.1 196.2c-12 12-12 31.5 0 43.6l115.7 115.7c12 12 31.5 12 43.6 0l121.1-121.1c6.3-6.3 9.8-14.9 9.8-23.8V109.9c0-8.9-3.5-17.5-9.8-23.8l-63.4-63.3z"/><path class="st6" d="M487.8 149.5L418.9 345l110.6-110.6c6.3-6.3 9.8-14.9 9.8-23.8v-38.1l-51.5-23z"/><path d="M537.2 98.1l-40.4 40.4c-12 12-12 31.5 0 43.6l40.4 40.4c1.4-3.7 2.1-7.7 2.1-11.8V109.9c.1-4-.7-8-2.1-11.8z" fill="#1a91ff"/><path class="st2" d="M437.9 163.8c-7.3-7.3-17.4-12.9-25.5-14.2-2.3-.4-4.5.8-5.4 2.9l-4.8 10.8c-.7 1.5-.6 3.1.2 4.5s2.2 2.4 3.8 2.6c4.3.6 9.7 3.5 13.4 7.2 5.4 5.6 5.8 10.7 1.2 15.3-4 4-9.9 5.8-22.6 6.8-14.2 1.3-25.4 6.7-32.6 15.6l-2.9 3.4c-1.7 2-1.6 5 .3 6.9l9.7 9.7c1 1 2.3 1.5 3.7 1.5 1.4 0 2.7-.6 3.6-1.6l3.1-3.3s0-.1.1-.1c5.2-5.9 11.6-8.6 21.9-9.5 14.3-1.2 25.9-2.9 35.4-12.4 10.7-10.8 14.2-29.3-2.6-46.1zM361.6 236.3c-5.4-5.4-13.4-5.3-19 .3-5.4 5.4-5.6 13.5-.3 18.7 5.4 5.4 13.3 5.3 18.9-.2s5.8-13.5.4-18.8z"/><path class="st11" d="M520.3 747.4c-20.3-11.6-31.6 4.3-31.6 4.3l41.9 70.7s10-63.4-10.3-75z"/><path d="M261.5 564.5c-16.6 3.5-27.3 19.9-23.7 36.5l51.1 239.9c3.5 16.6 19.9 27.3 36.5 23.7l160.1-34.1c16.6-3.5 27.3-19.9 23.7-36.5l-35.6-167.5c-1.9-8.7-7.1-16.3-14.6-21.2l-84.5-54.8c-7.5-4.9-16.6-6.5-25.3-4.7l-87.7 18.7z" fill="#ff6c5c"/><path d="M485.5 830.6c16.6-3.5 27.3-19.9 23.7-36.5l-35.6-167.5c-1.9-8.7-7.1-16.3-14.6-21.2l-84.5-54.8c-7.5-4.9-16.6-6.5-25.3-4.7l-11.9 2.5c-.9.9-1.9 1.8-2.8 2.7-66.9 66.9-61.2 188.7 3.2 311l147.8-31.5z" fill="#ef564b"/><path d="M363.5 545.9l11.9 55.8c3.5 16.6 19.9 27.3 36.5 23.7l55.8-11.9c-2.4-3.2-5.3-6-8.7-8.2l-84.5-54.8c-3.4-2.2-7.1-3.8-11-4.6z" fill="#ff958d"/><path class="st2" d="M364.5 665c-10.2 2.2-20.3 7.5-25.8 13.7-1.5 1.7-1.7 4.2-.5 6.2l6.4 9.9c.9 1.3 2.3 2.2 3.9 2.3s3.2-.5 4.2-1.8c2.8-3.3 8.2-6.3 13.3-7.3 7.6-1.5 12.1 1 13.5 7.4 1.2 5.6-.5 11.5-6.5 22.6-6.6 12.6-8.3 25-4.7 35.8l1.3 4.3c.8 2.5 3.3 4.1 5.9 3.5l13.4-2.8c1.4-.3 2.5-1.1 3.3-2.3.7-1.2 1-2.6.6-3.9l-1.1-4.4v-.1c-2.1-7.6-.9-14.4 4-23.6 6.7-12.6 11.7-23.3 8.9-36.5-3.3-15-16.9-28-40.1-23zM383.8 768.4c-7.5 1.6-11.7 8.3-10.1 16.1 1.6 7.5 8.3 12 15.6 10.5 7.5-1.6 11.7-8.3 10.1-15.9-1.7-7.8-8.2-12.3-15.6-10.7z"/><path class="st11" d="M516.4 767.5c-16.4-20.3-65.7-44.6-78.1-39s27.3 34.2 14.8 55.1c-12.4 20.9-3.7 78.2 66.6 78.2l10.7-34.4c.1 0 2.3-39.6-14-59.9z"/><path class="st15" d="M479.1 844.8c0 3 .3 5.9.8 8.8 10.2 5.1 23.3 8.2 39.8 8.2l10.7-34.4v-.1c1-20.4-24.4-31.2-38-15.9-8.3 9.5-13.3 21-13.3 33.4z"/><path class="st11" d="M522.6 249.9c-3.9-18.3-17.8-28-26.5-32.4-3.5-1.8-7.6.9-7.6 4.8.1 6.6 1.2 16.1 6.2 23.7 2 3.1.8 7.3-2.7 8.6-11.6 4.5-30.8 17.1-26.1 50.3l11.5 16.3c0 .1 51-44.1 45.2-71.3z"/><path class="st15" d="M466.6 282.8c-1.5 6.1-2 13.4-.7 22.2l11.5 16.3s11.9-10.3 23.6-24.1c-9.5-6.9-21.3-12-34.4-14.4z"/><path class="st16" d="M798 477.8s-130.8 116.8-231.7 31c-73.2-62.1-78.5-144.7-75.9-185.4.9-13.5-9.9-24.9-23.4-24.9-11.7 0-21.6 8.6-23.2 20.1-12.3 86.6-36.1 420.1 336.8 357.8"/><path class="st17" d="M798 477.8s-20.8 18.5-52.1 35.4c-13.4 29.6-21.3 65.5-14.8 106.5 3.6 22.5 5.7 43.3 6.5 62.4 13.7-1.3 28.1-3.1 43-5.6L798 477.8z"/><path class="st18" d="M443.8 318.7c-2.6 25-3.9 50.2-3.5 75.3.1 12.5.7 25.1 1.8 37.5 1.1 12.5 2.5 24.9 4.6 37.2 4.2 24.6 10.4 48.9 19.8 71.9 9.3 23 21.6 44.8 37.6 63.6 7.9 9.4 16.7 18.2 26.3 26 9.6 7.8 19.9 14.7 30.7 20.6 21.7 11.9 45.5 19.8 69.9 24.7 3 .7 6.1 1.1 9.2 1.7 3.1.5 6.1 1.1 9.2 1.4l9.3 1.2 9.3.9c1.6.1 3.1.3 4.7.4l4.7.3c3.1.2 6.2.4 9.4.5l9.4.2c1.6 0 3.1.1 4.7.1l4.7-.1c25.1-.1 50.1-2.3 75.1-5.5-24.7 5-49.8 8.2-75 9.4l-4.7.2c-1.6.1-3.2.1-4.7.1l-9.5.1c-3.2 0-6.3-.1-9.5-.2l-4.7-.1c-1.6-.1-3.2-.2-4.7-.3l-9.5-.6-9.5-1c-3.2-.3-6.3-.8-9.4-1.2-3.1-.5-6.3-.8-9.4-1.5-12.6-2.1-24.9-5.2-37.1-9.2-12.1-4-24-9-35.3-15-22.6-12-42.9-28.5-59.5-48.1-16.5-19.7-29.2-42.3-38.5-66-4.6-11.9-8.5-24.1-11.6-36.4-3.1-12.3-5.5-24.8-7.3-37.4-3.6-25.1-4.8-50.5-4.1-75.7.4-12.6 1.1-25.2 2.3-37.8.6-6.3 1.3-12.5 2.2-18.8.5-6 1.5-12.2 2.6-18.4z"/><path class="st19" d="M911.7 447.4l-65.9-16.2s-109.7 77-90.2 199.7-4.9 194-44.9 230.3 237.5 160.4 340.7 60c103.2-100.5 58.8-455.1-139.7-473.8z"/><path class="st16" d="M823.6 962.4c77.9 25 175.4 32.2 227.9-20.9 103.2-104.6 58.8-473.9-139.7-493.4l-65.9-16.9s-24.4 17.9-48.2 50.2c-20 33.1-22.1 74.8-4.8 109.5 8.6 17.3 21.4 34.2 40.5 46 57.9 35.7 36.3 131 36.3 131l-46.1 194.5z"/><path class="st18" d="M1051.4 921.1l3-3.3 1.5-1.7 1.4-1.8 2.8-3.5c.9-1.2 1.7-2.4 2.6-3.6 1.8-2.4 3.3-4.9 5-7.4.8-1.2 1.5-2.6 2.3-3.8.7-1.3 1.5-2.6 2.2-3.9 5.7-10.5 10.3-21.5 14-32.8 3.8-11.3 6.7-22.8 8.9-34.5s3.9-23.5 4.9-35.3c2-23.7 2.1-47.6.1-71.3-1.9-23.7-5.5-47.3-11.1-70.4-5.5-23.1-12.9-45.8-22.5-67.5-9.5-21.7-21.5-42.4-35.9-61.2-7.3-9.4-15.3-18.1-23.9-26.2-8.7-8.1-18.1-15.3-28.2-21.6s-20.8-11.5-32.1-15.4c-2.8-.9-5.7-1.9-8.5-2.8l-8.7-2.3-8.8-1.9-8.9-1.4 9 .8 8.9 1.3c3 .6 5.9 1.2 8.9 1.8 2.9.7 5.8 1.5 8.8 2.3 11.6 3.4 22.8 8.2 33.4 14.2s20.5 13.1 29.7 21.1 17.6 16.8 25.3 26.2c3.9 4.7 7.5 9.6 11 14.5l2.6 3.8c.9 1.3 1.7 2.5 2.5 3.8 1.6 2.6 3.3 5.1 4.8 7.7 6.3 10.4 12 21.2 17 32.2 10 22.1 17.6 45.2 23.4 68.8 5.6 23.6 9.2 47.6 10.9 71.7.8 12.1 1.1 24.2.9 36.3s-1 24.2-2.4 36.2c-2.7 24-7.8 47.9-16.4 70.6-4.3 11.3-9.5 22.3-15.8 32.6-6.1 10-13.7 19.5-22.6 27.7z"/><path class="st17" d="M1063.2 730.5l-6.6-59.5c-1.4-12.4-6-24.2-13.3-34.2-23.5-31.9-67.9-36.4-96.8-9.8l-1.2 1.1c-38.1 34.9-60.3 85-60.8 137.9-.5 49-10.5 111.4-51.1 155l-9.8 41.4c48.5 15.5 104.5 24.2 152.5 15.7 18.7-3.3 35-15.3 44.6-32.4 35.8-64.5 50.9-140 42.5-215.2z"/><path class="st16" d="M983.3 889.6C817 1078.9 576.2 920.1 507.5 868c-11.1-8.4-14.2-23.6-7.5-35.7 7.8-14 25.9-18.6 39.4-9.9 40.8 26.3 129.7 68.5 236.6 28.4 89.1-33.4 107.7-120.9 108.5-184.9.6-51 22.5-99.5 60.8-133.3l1.2-1.1c28.9-25.5 73.4-21.2 96.8 9.4 7.3 9.5 11.9 20.9 13.3 32.8l6.6 57.1c10.9 93.7-17.7 188-79.9 258.8z"/><path class="st19" d="M978.5 567.9c-19.7-20.9-54.1-17.2-68.8 7.5-16.1 27.1-24.9 58.3-25.3 90.5-.8 64-19.4 151.5-108.5 184.9-106.5 39.9-195.1-1.8-236.1-28.1-13.3-8.5-31.2-4.8-39.4 8.7-7.4 12.2-4.3 28 7 36.6 3.9 2.9 8.3 6.2 13.3 9.8 104.3 58.5 273.1 115 399.2-28.5 54.5-62 82.8-142.7 81.7-224.6-.3-21.2-8.6-41.4-23.1-56.8z"/><path class="st18" d="M775.9 850.8c-9.4 4.4-19.1 8-29 11.1-10 2.9-20.2 5.2-30.5 6.8-20.7 3.1-41.8 3.2-62.6.5-20.8-2.7-41.1-8.2-60.4-16.1s-37.6-18.1-54-30.6c18.2 9.7 37 18.2 56.3 24.8 19.3 6.6 39.1 11.4 59.2 14s40.5 3.1 60.8 1.2c10.1-1 20.3-2.4 30.3-4.3 10-2.1 19.9-4.7 29.9-7.4z"/><path class="st11" d="M946.3 454.6c-4.9-1.9-9.6-4.2-13.8-7.3-7.6-5.5-14-12.4-19-20.4-17.8-29.2-31.4-71.6-15.5-125.2 14.5-48.8-49.5-114-127.4-100.1-45.4 8.1-60.3 47.2-64.8 69.6-2.9 14.4-7 28.5-12.5 42-3.8 9.5-7.9 18.7-10.7 22.9-9.5 14.1 15.7 17 15.7 17s-27.4 105.3 42.5 104.2c48.4-.8 73.8.7 87.5 27.5 3.2 6.3 2.7 13.9-1.2 19.6-1.7 2.5-3.1 5.2-3.9 8-3.5 12.6-5.7 41.2 47.8 35.5 41-4.2 132-71.8 75.3-93.3z"/><path class="st15" d="M905.9 428.2c2.4-2.3 3.6-4.9 4.1-7.4-16-28.9-26.7-69.1-11.9-119.1 11-37.1-23.2-83.6-74.5-97.7-34.6-1.2-61.5 2.9-82 9-23.3 15.5-32.4 41.5-35.8 58.2-.2 1.2-.5 2.4-.8 3.6 35.6 23.4 97.8 18.9 96.7 56.7-1.4 48.3-30.3 97.9-47 70s-54.3-35.9-54.3-35.9c-2.5 5.4-4.7 10.7-6.8 15.8-2.8 31.1 1 76.6 47.1 75.9 40.9-.6 65.3.3 80.2 16.8 13.1-52.9 1.2-118.5 11.6-127.2 15-12.6 42.8 6 23.2 33.9-19.4 28 38.6 58.5 50.2 47.4z"/><path class="st20" d="M705.8 271.2c.2 5.9-.2 11.7-1 17.6-.8 5.8-2.1 11.6-4 17.2s-4.6 11-7.8 16c-3.2 4.9-6.7 9.5-10.4 14.1 1.8-5.6 4.5-10.9 6.9-16.1 2.5-5.2 4.7-10.3 6.5-15.7 1.9-5.3 3.4-10.8 4.9-16.4 1.6-5.4 3-11.1 4.9-16.7z"/><path class="st21" d="M698.3 353.2s37.5 8 54.3 35.9c16.7 27.8 45.6-21.7 47-70 1.2-41.8-75-31.8-107-65.2-8.9-9.3-7.6-24.5 2.8-32.2 18.8-14 58.6-33.5 131.5-30 107.2 5.2 133.1 60.4 86.1 168.5-5.9 13.5-8.1 28.5-5.2 42.9.8 4.2.1 8.6-3.9 12.5-11.6 11.1-69.6-19.4-50.1-47.3 19.5-27.9-8.3-46.6-23.2-33.9s16.5 143.9-48 184.2c-61.7 38.5-159.5-.9-84.3-165.4z"/><path d="M903.7 415.7c.9-.9 1.6-1.8 2.2-2.7-13.6-28.2-21.4-65.6-7.8-111.2 14.5-48.8-49.5-114-127.4-100.1-41.5 7.4-57.5 40.6-63.4 63.4 36.1 20.4 93.3 17.7 92.2 54-1.4 48.3-30.3 97.9-47 70s-54.3-35.9-54.3-35.9-27.4 105.3 42.5 104.2c37-.6 60.5.1 75.7 12.5 16.7-54.1 2.9-126.3 13.9-135.5 15-12.6 42.8 6 23.2 33.9-19.4 28 38.5 58.5 50.2 47.4z" fill="#061c54"/><path class="st23" d="M686.6 239.5c.1 5.1 2 10.3 5.9 14.3 17.8 18.6 49.4 23.7 73.6 31.9 4.3 1.4 8.4 3 12.1 4.7 1.2.5 2.3 1.1 3.4 1.7 2.8 1.5 5.3 3.1 7.5 4.8.4.4.9.7 1.3 1.1 2.5 2.2 4.6 4.7 6.1 7.6.5.9 1 1.9 1.3 3 .4 1 .7 2.1.9 3.2.2 1.1.4 2.3.5 3.5s.1 2.5.1 3.8c-1.3 45.7-27.3 92.6-44.2 73.8 22.3 25.9 52.9-28.8 54.1-71.7 1.2-41.8-75-31.8-107-65.2-8.9-9.3-7.6-24.5 2.8-32.2 18.8-14 58.6-33.5 131.5-30 12 .6 23 1.8 32.9 3.6-1.5-.4-3.1-.7-4.7-1.1h-.1c-4.8-1-9.9-1.9-15.2-2.6h-.4c-1.5-.2-3.1-.4-4.6-.6-.4 0-.9-.1-1.3-.1-1.3-.1-2.6-.3-3.9-.4-.5-.1-1.1-.1-1.6-.1l-3.9-.3c-.5 0-1.1-.1-1.6-.1-1.8-.1-3.6-.2-5.5-.3h-.1c-9.1-.4-17.7-.5-25.8-.3-2 .1-4 .1-6 .2-7.9.4-15.2 1-22.1 1.9-1.7.2-3.4.5-5.1.7-34.1 5.2-56.3 16.1-69.6 25.3-1 .7-2 1.4-2.9 2.1-.5.3-.9.7-1.3 1.1-4.9 4.3-7.5 10.4-7.4 16.5.3 0 .3.1.3.2zM753.3 390.3zM707.8 356c-5.8-2-9.6-2.8-9.6-2.8-54.1 118.4-18.6 171.9 28.4 178.4-41.6-12.4-68.5-66.2-18.8-175.6z"/><path class="st15" d="M849.5 362.4c1.7-6.5-.4-12.7-4.9-13.9-.9-.3-1.9-.3-2.9 0-2.7.6-3.7 3.8-2.2 6.1 1.4 2.1 1.9 4.4 1.2 6.5-.7 1.9-2.2 3.2-4.3 4-1.9.7-2.6 3.1-1.4 4.7.9 1.1 2 1.8 3.2 2.2 4.6 1.1 9.6-3.1 11.3-9.6z"/><path class="st20" d="M751.5 326.5c.7 3.8-6.3 4.7-14.8 6.2s-15.4 3-16-.8c-.7-3.8 5.7-8 14.2-9.5s15.9.4 16.6 4.1z"/><g><path class="st21" d="M912.8 360.4c-.2.6-.5 1.1-.7 1.7v.1c.1-.6.4-1.2.7-1.8zM903.7 415.7c4.1-3.9 4.8-8.4 3.9-12.5-2.6-13.3-1-27 3.9-39.6-13.4 33.8-32.8 42-22.5 6.7 10.5-35.8-46.9-39.9-46.9-39.9v.1c13.6.6 26.4 16.5 11.5 38-19.5 27.8 38.4 58.3 50.1 47.2z"/></g><g><path class="st23" d="M827.4 306c-.5-5.5-2.2-10.8-5.5-14.8-3.2-4.1-7.7-7.1-12.4-9.4-4.7-2.4-9.8-4.2-15-5.9s-10.4-3.2-15.7-4.7c-10.6-3-21.3-6.2-31.5-10.8-5.1-2.3-10.1-4.9-14.7-8.2-4.6-3.2-8.9-7-12.2-11.4 8.6 7.1 18.5 11.6 28.7 15.2 10.2 3.6 20.8 6.3 31.4 9.4 5.3 1.5 10.6 3.2 15.9 5.1 5.3 1.9 10.5 4.2 15.4 7.1 4.9 3 9.5 6.8 12.5 11.9 3 5.1 3.9 11.1 3.1 16.5z"/></g><g><path class="st15" d="M910.8 422.3c.2.3.4.6.5.9-.1-.3-.3-.6-.5-.9zM914.9 429.1c1.8 2.7 3.8 5.4 6 7.8-2.2-2.5-4.2-5.1-6-7.8zM914.9 429.1c-.5-.7-.9-1.4-1.3-2.1.4.7.8 1.4 1.3 2.1zM906.1 413.4c.2.3.3.6.5.9-.2-.2-.3-.6-.5-.9z"/></g><g><path class="st18" d="M1063.2 630.9c2.1 16.7 3.4 33.6 3.1 50.5.1 2.1-.1 4.2-.2 6.3l-.3 6.3-.3 6.3c-.1 2.1-.4 4.2-.6 6.3-.4 4.2-.8 8.4-1.3 12.6l-1.9 12.6-.5 3.1c-.2 1-.4 2.1-.6 3.1l-1.3 6.2c-.9 4.1-1.6 8.3-2.8 12.4l-3.3 12.3c-1.2 4.1-2.6 8.1-3.9 12.1-5.4 16.1-11.9 31.8-19.8 46.9l-2.9 5.7c-1 1.9-2.1 3.7-3.2 5.5-2.1 3.7-4.2 7.4-6.4 11-4.7 7.1-9.2 14.3-14.4 21.1-10.1 13.7-21.1 26.7-33.3 38.7-12.1 12-25.4 22.8-39.6 32.4-1.7 1.2-3.6 2.3-5.4 3.5-1.8 1.1-3.6 2.3-5.4 3.4-3.7 2.1-7.4 4.4-11.2 6.3-7.5 4.1-15.4 7.6-23.3 10.9-31.8 12.7-66.3 18.2-100.4 17.4l-6.4-.2-6.4-.4c-2.1-.1-4.2-.3-6.4-.5-2.1-.2-4.2-.3-6.4-.6-8.5-.9-16.9-2.2-25.2-3.7-8.4-1.6-16.7-3.4-24.9-5.5-8.2-2.2-16.4-4.5-24.4-7.2-32.3-10.5-63.2-24.7-92.6-41.2-29.4-16.6-57.6-35.4-83.9-56.4 27.4 19.6 56 37.4 85.8 52.9 7.4 3.9 14.9 7.6 22.5 11.2s15.2 7 23 10.2c7.7 3.2 15.5 6.3 23.4 9.2 7.9 2.9 15.8 5.5 23.8 8 8 2.4 16.1 4.6 24.2 6.6 8.1 1.9 16.3 3.7 24.5 5.1s16.5 2.6 24.8 3.4c2.1.2 4.1.3 6.2.5s4.1.3 6.2.4l6.2.3 6.2.1c8.3.1 16.6 0 24.9-.7 4.1-.2 8.3-.8 12.4-1.2 4.1-.6 8.2-1.1 12.3-1.9 8.2-1.3 16.2-3.3 24.2-5.5l6-1.8c2-.6 3.9-1.3 5.9-2 3.9-1.3 7.8-2.8 11.6-4.3 7.6-3.2 15.2-6.5 22.5-10.4 3.7-1.8 7.2-4 10.8-6 1.8-1 3.5-2.2 5.3-3.3 1.7-1.1 3.5-2.2 5.2-3.4 13.8-9.2 26.6-19.8 38.6-31.3s22.9-24.1 33-37.4l3.8-5c.6-.8 1.3-1.6 1.9-2.5l1.7-2.6 7-10.4c2.2-3.5 4.3-7.1 6.5-10.7 1.1-1.8 2.2-3.6 3.2-5.4l2.9-5.5 2.9-5.5c1-1.8 2-3.7 2.9-5.6l5.3-11.3c.4-.9.9-1.9 1.3-2.8l1.2-2.9 2.4-5.8 2.4-5.8c.8-1.9 1.4-3.9 2.1-5.9 1.4-3.9 2.8-7.9 4.1-11.8l3.5-12c1.3-4 2.1-8.1 3.1-12.2.9-4.1 2-8.1 2.7-12.3l2.3-12.3c.6-4.1 1.1-8.3 1.7-12.4.3-2.1.6-4.2.8-6.2l.5-6.3.5-6.3c.2-2.1.4-4.2.4-6.3l.4-12.6c0-1 .1-2.1.1-3.1l-.1-3.1-.1-6.3-.1-6.3c0-1.1-.1-2.1-.1-3.1l-.2-3.1-.7-12.5z"/></g><g><path class="st15" d="M826.6 482s.1 0 0 0c0 0 0-.1 0 0zM838.2 528.6c1.6-11.1-4.2-28.4-8.2-38.5 1 5-.1 10.2-3 14.4-1.7 2.5-3.1 5.1-3.9 8-3.1 11.4-5.3 36 34.2 36.2-7.6-.2-21.3-4.8-19.1-20.1z"/></g><path class="st24" d="M65.9 416c-10.5 3.6-21.4-4.3-21.4-15.4v-7.5c0-8.5 5.4-16.1 13.5-18.8 10.5-3.6 21.4 4.3 21.4 15.4v7.5c0 8.5-5.4 16.1-13.5 18.8z"/><path class="st2" d="M231.2 847.4l-43.5 14.7c-8.1 2.7-16.5-3.3-16.5-11.8v-60.6c0-5.3 3.4-10.1 8.5-11.8l43.5-14.7c8.1-2.7 16.5 3.3 16.5 11.8v60.6c0 5.3-3.4 10.1-8.5 11.8zM120.6 878.8l-14.5 4.9c-2.7.9-5.5-1.1-5.5-3.9v-20.2c0-1.8 1.1-3.4 2.8-3.9l14.5-4.9c2.7-.9 5.5 1.1 5.5 3.9v20.2c.1 1.8-1.1 3.4-2.8 3.9zM214.9 924.6l-14.5 4c-2.7.7-5.5-.9-5.5-3.2v-16.2c0-1.4 1.1-2.7 2.8-3.2l14.5-4c2.7-.7 5.5.9 5.5 3.2v16.2c.1 1.4-1.1 2.7-2.8 3.2zM1397.4 623.5l-13.1 7.8c-2.4 1.5-5.6.1-6.2-2.7l-4.2-19.7c-.4-1.7.4-3.5 1.9-4.4l13.1-7.8c2.4-1.5 5.6-.1 6.2 2.7l4.2 19.7c.4 1.7-.4 3.5-1.9 4.4zM1374.6 740.2l-29 9.8c-5.4 1.8-11-2.2-11-7.9v-40.4c0-3.6 2.3-6.7 5.6-7.9l29-9.8c5.4-1.8 11 2.2 11 7.9v40.4c0 3.6-2.2 6.8-5.6 7.9zM205.1 666l-29 9.8c-5.4 1.8-11-2.2-11-7.9v-40.4c0-3.6 2.3-6.7 5.6-7.9l29-9.8c5.4-1.8 11 2.2 11 7.9v40.4c0 3.6-2.2 6.7-5.6 7.9z"/><g><path class="st24" d="M51.2 455.1l124.9-42.4c2.1-.7 3.5-2.7 3.5-4.8 0-3.5-3.4-6-6.8-4.8L47.9 445.5c-2.1.7-3.5 2.7-3.5 4.8.1 3.4 3.5 5.9 6.8 4.8zM51.2 489l124.9-42.4c2.1-.7 3.5-2.7 3.5-4.8 0-3.5-3.4-6-6.8-4.8L48 479.3c-2.1.7-3.5 2.7-3.5 4.8 0 3.5 3.4 6 6.7 4.9zM51.2 522.8l124.9-42.4c2.1-.7 3.5-2.7 3.5-4.8 0-3.5-3.4-6-6.8-4.8L47.9 513.2c-2.1.7-3.5 2.7-3.5 4.8.1 3.5 3.5 6 6.8 4.8z"/></g><g><path class="st24" d="M114.3 791.3l-95.5 32.4C9.6 826.8 0 820 0 810.2V682.8c0-6.1 3.9-11.5 9.7-13.5l95.5-32.4c9.2-3.1 18.8 3.7 18.8 13.5v127.4c-.1 6.1-4 11.6-9.7 13.5z"/><path class="st1" d="M32.4 710.1L93 689.5c1-.3 1.7-1.3 1.7-2.3 0-1.7-1.7-2.9-3.3-2.3l-60.6 20.6c-1 .3-1.7 1.3-1.7 2.3.1 1.6 1.7 2.8 3.3 2.3zM32.4 726.5L93 705.9c1-.3 1.7-1.3 1.7-2.3 0-1.7-1.7-2.9-3.3-2.3l-60.6 20.6c-1 .3-1.7 1.3-1.7 2.3.1 1.7 1.7 2.9 3.3 2.3zM32.4 743L93 722.4c1-.3 1.7-1.3 1.7-2.3 0-1.7-1.7-2.9-3.3-2.3l-60.6 20.6c-1 .3-1.7 1.3-1.7 2.3.1 1.6 1.7 2.8 3.3 2.3zM32.4 759.4L93 738.8c1-.3 1.7-1.3 1.7-2.3 0-1.7-1.7-2.9-3.3-2.3l-60.6 20.6c-1 .3-1.7 1.3-1.7 2.3.1 1.7 1.7 2.9 3.3 2.3zM32.4 775.9L93 755.3c1-.3 1.7-1.3 1.7-2.3 0-1.7-1.7-2.9-3.3-2.3l-60.6 20.6c-1 .3-1.7 1.3-1.7 2.3.1 1.6 1.7 2.8 3.3 2.3z"/></g><path class="st24" d="M172.9 335.3l-81.4 27.6v10.8l84.6-28.7c2.1-.7 3.5-2.7 3.5-4.8 0-3.6-3.4-6.1-6.7-4.9zM172.9 369.1l-81.4 27.6v10.8l84.6-28.7c2.1-.7 3.5-2.7 3.5-4.8 0-3.5-3.4-6-6.7-4.9z"/><circle class="st2" cx="292" cy="444.1" r="15.1"/><circle class="st2" cx="342.4" cy="478.1" r="3.9"/><circle class="st2" cx="359.3" cy="429.6" r="7.3"/><circle class="st2" cx="318.4" cy="505.7" r="4.2"/><path fill="none" d="M-740.3 1275.3h2880v171h-2880z"/></g></svg>