<svg id="Capa_1" enable-background="new 0 0 512 512" height="512" viewBox="0 0 512 512" width="512" xmlns="http://www.w3.org/2000/svg"><g><path d="m241 106c0 24.813 20.187 45 45 45h15v60h90v-45c0-8.271 6.729-15 15-15s15 6.729 15 15v45h91v-211h-211v61h-15c-24.813 0-45 20.187-45 45zm45-15h45v-61h151v151h-31v-15c0-24.813-20.187-45-45-45s-45 20.187-45 45v15h-30v-60h-45c-8.271 0-15-6.729-15-15s6.729-15 15-15z"/><path d="m391 301h-60v-15c0-24.813-20.187-45-45-45s-45 20.187-45 45v15h-30v-60h-45c-8.271 0-15-6.729-15-15s6.729-15 15-15h45v-90h-211v391h391zm-361-150h151v30h-15c-24.813 0-45 20.187-45 45s20.187 45 45 45h15v30h-60v45c0 8.271-6.729 15-15 15s-15-6.729-15-15v-45h-61zm151 331h-151v-151h31v15c0 24.813 20.187 45 45 45s45-20.187 45-45v-15h30v60h45c8.271 0 15 6.729 15 15s-6.729 15-15 15h-45zm180 0h-150v-31h15c24.813 0 45-20.187 45-45s-20.187-45-45-45h-15v-30h60v-45c0-8.271 6.729-15 15-15s15 6.729 15 15v45h60z"/></g></svg>